<svg
      stroke="currentColor"
      fill="currentColor"
      stroke-width="0"
      width="20"
      height="20"
      viewBox="0 0 20 20"
      xmlns="http://www.w3.org/2000/svg"
    >
      <path
        id="Vector"
        d="M9.99992 5.41668C9.99992 2.88537 7.94789 0.833344 5.41658 0.833344C2.88528 0.833344 0.833252 2.88537 0.833252 5.41668C0.833252 7.94799 2.88528 10 5.41658 10C7.94789 10 9.99992 7.94799 9.99992 5.41668ZM5.83379 5.83335L5.83418 7.91961C5.83418 8.14973 5.64763 8.33626 5.41751 8.33626C5.18739 8.33626 5.00084 8.14973 5.00084 7.91961L5.00046 5.83335H2.91333C2.68321 5.83335 2.49666 5.6468 2.49666 5.41669C2.49666 5.18657 2.68321 5.00002 2.91333 5.00002H5.0003L4.99992 2.91607C4.99992 2.68595 5.18647 2.4994 5.41658 2.4994C5.6467 2.4994 5.83325 2.68595 5.83325 2.91607L5.83364 5.00002H7.91909C8.14921 5.00002 8.33575 5.18657 8.33575 5.41669C8.33575 5.6468 8.14921 5.83335 7.91909 5.83335H5.83379ZM14.7916 3.75001H10.572C10.4284 3.30545 10.2288 2.88602 9.98175 2.50001H14.7916C16.2873 2.50001 17.4999 3.71257 17.4999 5.20834V10.9406C17.4999 11.4378 17.3023 11.9148 16.9508 12.2664L12.2663 16.9508C11.9147 17.3024 11.4378 17.5 10.9405 17.5H5.20825C3.71248 17.5 2.49992 16.2874 2.49992 14.7917V9.98184C2.88593 10.2289 3.30536 10.4285 3.74992 10.5721V14.7917C3.74992 15.5971 4.40284 16.25 5.20825 16.25H10.8333V13.5417C10.8333 12.0975 11.9637 10.9173 13.3879 10.8376L13.5416 10.8333H16.2499V5.20834C16.2499 4.40293 15.597 3.75001 14.7916 3.75001ZM15.3658 12.0833H13.5416C12.7764 12.0833 12.1489 12.6726 12.0881 13.4221L12.0833 13.5417V15.3658L15.3658 12.0833Z"
      />
    </svg>